<?xml version="1.0" encoding="iso-8859-1"?>
<!-- Generator: Adobe Illustrator 19.0.0, SVG Export Plug-In . SVG Version: 6.00 Build 0)  -->
<svg version="1.1" id="Capa_1" xmlns="http://www.w3.org/2000/svg" xmlns:xlink="http://www.w3.org/1999/xlink" x="0px" y="0px"
	 viewBox="0 0 512.001 512.001" style="enable-background:new 0 0 512.001 512.001;" xml:space="preserve">
<path style="fill:#B7623F;" d="M288.674,282.848c-2.438-1.635-2.61-5.145-0.386-7.061c8.455-7.283,13.809-18.069,13.809-30.104
	c0-12.29-5.583-23.276-14.351-30.561c-2.103-1.747-2.103-5.02,0-6.766c8.768-7.285,14.351-18.271,14.351-30.562
	c0-12.035-5.353-22.821-13.809-30.104c-2.225-1.916-2.053-5.425,0.386-7.061c11.539-7.739,18.935-21.175,18.144-36.287
	c-1.106-21.134-18.48-38.129-39.632-38.802c-15.332-0.488-28.844,7.444-36.281,19.518c-1.652,2.681-5.419,2.872-7.359,0.392
	c-7.267-9.289-18.575-15.262-31.284-15.262c-12.86,0-24.288,6.114-31.546,15.592c-1.767,2.307-5.26,2.307-7.027,0
	c-7.257-9.478-18.686-15.592-31.546-15.592c-12.709,0-24.017,5.973-31.284,15.262c-1.941,2.48-5.708,2.29-7.359-0.392
	C76.063,72.984,62.551,65.053,47.219,65.54c-21.151,0.673-38.524,17.668-39.63,38.802c-0.791,15.112,6.605,28.548,18.144,36.287
	c2.438,1.635,2.61,5.145,0.386,7.061c-8.455,7.283-13.809,18.069-13.809,30.104c0,12.291,5.583,23.277,14.351,30.562
	c2.103,1.747,2.103,5.02,0,6.766c-8.768,7.285-14.351,18.271-14.351,30.561c0,12.036,5.353,22.821,13.809,30.104
	c2.225,1.916,2.053,5.425-0.386,7.061c-11.539,7.739-18.935,21.175-18.144,36.288c1.106,21.134,18.48,38.129,39.632,38.802
	c15.332,0.487,28.844-7.444,36.281-19.518c1.652-2.681,5.419-2.872,7.359-0.392c7.267,9.289,18.575,15.262,31.284,15.262
	c12.86,0,24.288-6.114,31.546-15.592c1.767-2.307,5.26-2.307,7.027,0c7.257,9.478,18.686,15.592,31.546,15.592
	c12.709,0,24.017-5.973,31.284-15.262c1.941-2.48,5.708-2.29,7.359,0.392c7.437,12.074,20.949,20.005,36.281,19.518
	c21.152-0.672,38.526-17.667,39.632-38.801C307.61,304.023,300.214,290.587,288.674,282.848z"/>
<path style="fill:#A55235;" d="M288.678,282.849c-2.44-1.637-2.611-5.141-0.392-7.059c8.455-7.29,13.807-18.074,13.807-30.103
	c0-12.29-5.583-23.275-14.349-30.565c-2.099-1.747-2.099-5.021,0-6.768c8.766-7.28,14.349-18.265,14.349-30.565
	c0-12.029-5.352-22.813-13.807-30.103c-2.219-1.908-2.048-5.422,0.392-7.059c11.537-7.742,18.928-21.177,18.144-36.289
	c-1.105-21.127-18.486-38.126-39.633-38.799c-5.724-0.181-11.196,0.813-16.196,2.761c12.782,6.446,21.829,19.399,22.613,34.451
	c0.793,15.112-6.607,28.547-18.144,36.289c-2.44,1.637-2.611,5.141-0.381,7.059c8.455,7.29,13.807,18.074,13.807,30.103
	c0,12.29-5.583,23.275-14.359,30.565c-2.099,1.747-2.099,5.021,0,6.768c8.776,7.28,14.359,18.265,14.359,30.555
	c0,12.039-5.352,22.824-13.817,30.103c-2.219,1.918-2.048,5.432,0.391,7.069c11.537,7.732,18.938,21.167,18.144,36.279
	c-0.853,16.417-11.527,30.344-26.177,36.048c5.914,2.992,12.642,4.579,19.761,4.348c21.147-0.673,38.528-17.662,39.633-38.799
	C307.605,304.026,300.215,290.591,288.678,282.849z"/>
<circle cx="91.94" cy="157.518" r="8.535"/>
<circle cx="157.2" cy="157.518" r="8.535"/>
<circle cx="91.94" cy="211.738" r="8.535"/>
<circle cx="157.2" cy="211.738" r="8.535"/>
<circle cx="91.94" cy="265.958" r="8.535"/>
<circle cx="157.2" cy="265.958" r="8.535"/>
<path style="fill:#B7623F;" d="M459.936,375.128c-2.169-1.979-1.819-5.475,0.665-7.04c9.442-5.949,16.335-15.821,18.12-27.724
	c1.822-12.155-2.07-23.847-9.661-32.352c-1.82-2.039-1.335-5.276,1.003-6.692c9.751-5.904,16.902-15.941,18.724-28.096
	c1.785-11.902-1.911-23.362-9.193-31.819c-1.916-2.225-1.225-5.67,1.428-6.925c12.559-5.943,21.866-18.134,23.324-33.196
	c2.04-21.064-12.622-40.448-33.441-44.249c-15.09-2.755-29.629,3.085-38.774,13.923c-2.031,2.407-5.785,2.037-7.336-0.704
	c-5.81-10.264-16.107-17.848-28.675-19.732c-12.718-1.907-24.926,2.445-33.509,10.743c-2.089,2.02-5.544,1.502-6.949-1.042
	c-5.772-10.449-16.167-18.19-28.885-20.097c-12.568-1.884-24.637,2.346-33.201,10.455c-2.287,2.165-5.984,1.418-7.22-1.479
	c-5.565-13.044-17.751-22.891-32.986-24.682c-21.018-2.471-40.72,11.76-44.947,32.497c-3.023,14.828,2.299,29.212,12.564,38.576
	c2.169,1.979,1.819,5.475-0.665,7.04c-9.442,5.949-16.335,15.821-18.12,27.724c-1.822,12.155,2.07,23.847,9.661,32.352
	c1.82,2.039,1.335,5.276-1.003,6.692c-9.751,5.904-16.902,15.941-18.724,28.096c-1.785,11.902,1.911,23.362,9.193,31.819
	c1.916,2.225,1.225,5.67-1.428,6.925c-12.559,5.943-21.866,18.134-23.324,33.196c-2.04,21.064,12.622,40.448,33.441,44.249
	c15.09,2.755,29.628-3.085,38.774-13.923c2.031-2.407,5.785-2.037,7.336,0.704c5.81,10.264,16.107,17.848,28.675,19.732
	c12.718,1.907,24.926-2.445,33.509-10.743c2.089-2.02,5.544-1.502,6.949,1.042c5.772,10.449,16.167,18.19,28.885,20.097
	c12.568,1.884,24.637-2.346,33.201-10.455c2.287-2.165,5.984-1.418,7.22,1.479c5.565,13.044,17.751,22.89,32.986,24.682
	c21.018,2.471,40.72-11.76,44.947-32.496C475.522,398.877,470.2,384.493,459.936,375.128z"/>
<path style="fill:#A55235;" d="M470.904,157.034c-8.786-1.606-17.381-0.291-24.842,3.213c15.303,7.22,25.123,23.547,23.426,41.038
	c-1.466,15.062-10.774,27.252-23.326,33.196c-2.661,1.255-3.344,4.699-1.436,6.928c7.29,8.455,10.985,19.912,9.198,31.82
	c-1.828,12.15-8.977,22.191-18.727,28.095c-2.34,1.416-2.821,4.649-1.004,6.687c7.591,8.505,11.487,20.193,9.66,32.353
	c-1.777,11.899-8.676,21.769-18.114,27.724c-2.49,1.566-2.832,5.061-0.663,7.039c10.262,9.368,15.584,23.747,12.561,38.578
	c-2.661,13.043-11.437,23.506-22.813,28.858c3.906,1.848,8.184,3.103,12.732,3.635c21.016,2.47,40.717-11.758,44.944-32.493
	c3.022-14.831-2.299-29.21-12.561-38.578c-2.169-1.978-1.818-5.473,0.663-7.039c9.439-5.954,16.337-15.825,18.114-27.724
	c1.828-12.16-2.069-23.848-9.66-32.353c-1.817-2.038-1.335-5.272,1.004-6.687c9.75-5.904,16.899-15.945,18.727-28.095
	c1.787-11.909-1.908-23.366-9.198-31.82c-1.908-2.229-1.225-5.673,1.436-6.928c12.561-5.944,21.86-18.134,23.326-33.196
	C506.39,180.219,491.73,160.839,470.904,157.034z"/>
<path d="M504.904,192.19c-4.131-0.249-7.713,2.929-7.953,7.083c-0.025,0.428-0.058,0.857-0.099,1.286
	c-1.151,11.879-8.272,22.016-19.049,27.115c-3.395,1.606-5.788,4.635-6.568,8.311c-0.784,3.7,0.182,7.467,2.653,10.336
	c6.127,7.115,8.843,16.514,7.452,25.788c-1.424,9.493-6.955,17.792-15.177,22.771c-3.035,1.838-5.079,4.912-5.608,8.436
	c-0.529,3.524,0.524,7.064,2.887,9.713c6.401,7.171,9.256,16.728,7.832,26.22c-1.391,9.275-6.744,17.465-14.685,22.469
	c-3.203,2.018-5.233,5.336-5.569,9.102c-0.333,3.744,1.067,7.342,3.841,9.873c8.809,8.036,12.644,19.816,10.26,31.51
	c-3.442,16.885-19.553,28.534-36.688,26.521c-11.909-1.4-22.232-9.124-26.939-20.157c-1.543-3.619-4.757-6.256-8.595-7.053
	c-3.848-0.799-7.86,0.345-10.729,3.061c-7.249,6.865-17.062,9.951-26.907,8.476c-9.985-1.497-18.518-7.435-23.41-16.291
	c-1.812-3.281-4.981-5.482-8.694-6.038c-3.714-0.556-7.389,0.618-10.081,3.224c-7.273,7.031-17.171,10.204-27.157,8.709
	c-9.851-1.477-18.321-7.306-23.239-15.994c-1.947-3.438-5.445-5.708-9.36-6.073c-3.91-0.364-7.75,1.214-10.286,4.222
	c-7.735,9.167-19.872,13.527-31.664,11.371c-16.969-3.099-28.959-18.963-27.298-36.115c1.15-11.878,8.271-22.015,19.05-27.115
	c3.393-1.606,5.786-4.635,6.566-8.31c0.786-3.699-0.181-7.466-2.652-10.336c-6.126-7.114-8.842-16.513-7.451-25.788
	c1.423-9.493,6.954-17.792,15.178-22.771c3.035-1.838,5.078-4.913,5.607-8.437c0.528-3.524-0.524-7.063-2.888-9.712
	c-6.4-7.17-9.255-16.727-7.832-26.22c1.391-9.274,6.745-17.464,14.687-22.469c3.204-2.018,5.232-5.336,5.567-9.102
	c0.333-3.744-1.067-7.342-3.841-9.873c-8.808-8.036-12.643-19.815-10.26-31.509c3.443-16.885,19.558-28.534,36.688-26.521
	c11.909,1.4,22.232,9.124,26.939,20.159c1.544,3.619,4.758,6.255,8.597,7.052c3.849,0.797,7.859-0.347,10.727-3.061
	c7.25-6.865,17.059-9.951,26.907-8.476c9.986,1.497,18.518,7.435,23.41,16.291c1.812,3.281,4.98,5.481,8.692,6.038
	c3.716,0.555,7.387-0.619,10.083-3.224c7.273-7.032,17.175-10.208,27.157-8.709c9.851,1.477,18.32,7.307,23.238,15.994
	c1.946,3.438,5.445,5.708,9.36,6.073c3.9,0.359,7.748-1.214,10.285-4.222c7.737-9.167,19.87-13.525,31.666-11.371
	c3.079,0.562,6.056,1.556,8.85,2.953c3.719,1.862,8.245,0.354,10.104-3.366c1.861-3.719,0.355-8.243-3.365-10.104
	c-4.068-2.035-8.402-3.482-12.882-4.3c-15.729-2.87-31.873,2.245-43.083,13.431c-7.4-10.814-18.837-18.019-31.938-19.983
	c-13.386-2.006-26.654,1.698-36.981,10.205c-7.38-11.161-18.982-18.595-32.362-20.602c-7.707-1.158-15.391-0.396-22.502,2.079
	c6.302-8.787,9.536-19.535,8.946-30.81c-1.306-24.963-21.913-45.14-46.913-45.935c-15.979-0.515-31.189,6.946-40.615,19.67
	c-8.922-9.598-21.3-15.027-34.549-15.027c-13.531,0-26.106,5.631-35.059,15.576c-8.954-9.944-21.53-15.576-35.06-15.576
	c-13.249,0-25.626,5.429-34.548,15.027c-9.428-12.725-24.639-20.197-40.616-19.67C21.98,58.808,1.374,78.985,0.069,103.948
	c-0.835,15.961,5.964,30.887,18.335,40.652c-1.433,1.452-2.772,2.995-4.005,4.616c-2.517,3.31-1.874,8.035,1.438,10.552
	c3.31,2.518,8.037,1.874,10.553-1.437c1.367-1.798,2.93-3.459,4.644-4.935c2.868-2.471,4.383-6.052,4.157-9.827
	c-0.225-3.752-2.143-7.103-5.262-9.195c-9.903-6.641-15.442-17.721-14.819-29.64c0.899-17.209,15.109-31.12,32.349-31.668
	c11.999-0.375,23.339,5.727,29.63,15.94c2.063,3.351,5.631,5.481,9.546,5.701c3.926,0.214,7.723-1.507,10.157-4.618
	c6.151-7.862,15.391-12.371,25.352-12.371c10.098,0,19.417,4.607,25.567,12.639c2.278,2.976,5.737,4.683,9.491,4.683
	c0.001,0,0.001,0,0.002,0c3.753,0,7.213-1.707,9.493-4.683c6.15-8.033,15.469-12.64,25.566-12.64c9.961,0,19.202,4.51,25.353,12.372
	c2.435,3.111,6.257,4.835,10.155,4.618c3.914-0.219,7.483-2.349,9.548-5.701c6.291-10.214,17.641-16.327,29.629-15.94
	c17.24,0.548,31.45,14.459,32.35,31.668c0.602,11.501-4.548,22.209-13.806,28.913c-7.848-9.158-18.954-15.261-31.241-16.706
	c-24.854-2.922-48.212,13.979-53.205,38.472c-3.192,15.661,1.319,31.429,12.104,42.921c-9.911,7.426-16.543,18.461-18.395,30.806
	c-1.91,12.742,1.428,25.558,9.191,35.703c-10.397,7.422-17.347,18.697-19.257,31.436c-1.851,12.347,1.253,24.842,8.552,34.847
	c-5.442,3.112-10.118,7.173-13.891,11.923c-4.91-2.146-9.267-5.509-12.654-9.932c-2.279-2.977-5.74-4.683-9.494-4.682
	c-3.754,0-7.213,1.708-9.491,4.683c-6.15,8.032-15.47,12.64-25.567,12.64c-9.961,0-19.201-4.509-25.352-12.372
	c-2.434-3.111-6.23-4.834-10.157-4.618c-3.915,0.22-7.483,2.35-9.546,5.7c-6.292,10.214-17.643,16.33-29.629,15.941
	c-17.24-0.548-31.45-14.459-32.35-31.668c-0.625-11.917,4.916-22.998,14.82-29.64c3.118-2.092,5.035-5.443,5.261-9.195
	c0.227-3.774-1.288-7.355-4.157-9.825c-7.113-6.127-11.192-15.02-11.192-24.398c0-9.599,4.24-18.627,11.633-24.769
	c2.73-2.268,4.295-5.612,4.295-9.176c0-3.563-1.565-6.907-4.295-9.175c-2.562-2.129-4.771-4.628-6.566-7.426
	c-2.246-3.502-6.903-4.519-10.404-2.274c-3.502,2.245-4.521,6.903-2.275,10.404c1.98,3.088,4.304,5.926,6.933,8.471
	C9.98,220.619,4.78,232.799,4.78,245.683c0,12.483,4.922,24.38,13.624,33.194c-12.372,9.766-19.171,24.691-18.335,40.652
	c1.306,24.963,21.913,45.14,46.913,45.935c0.513,0.017,1.024,0.025,1.536,0.025c15.414,0,29.954-7.379,39.079-19.695
	c8.921,9.598,21.299,15.027,34.548,15.027c13.53,0,26.105-5.631,35.06-15.576c4.2,4.665,9.2,8.375,14.72,11.003
	c-1.449,3.916-2.425,8.057-2.842,12.365c-2.41,24.881,14.976,47.89,39.584,52.384c15.729,2.872,31.872-2.245,43.081-13.431
	c7.401,10.815,18.837,18.019,31.939,19.983c13.377,2.003,26.651-1.698,36.981-10.205c7.381,11.163,18.981,18.596,32.362,20.602
	c13.1,1.962,26.148-1.569,36.394-9.738c7.437,13.981,21.37,23.608,37.249,25.475c1.875,0.22,3.74,0.328,5.59,0.328
	c22.674,0,43-16.154,47.615-38.8c3.193-15.661-1.318-31.429-12.104-42.922c9.912-7.426,16.543-18.461,18.395-30.806
	c1.911-12.74-1.427-25.557-9.19-35.702c10.397-7.422,17.346-18.696,19.257-31.437c1.851-12.345-1.254-24.84-8.552-34.847
	c13.681-7.823,22.619-21.576,24.16-37.485c0.061-0.624,0.108-1.246,0.144-1.866C512.228,195.992,509.057,192.43,504.904,192.19z"/>
<circle cx="283.96" cy="222.018" r="8.535"/>
<circle cx="348.5" cy="231.688" r="8.535"/>
<circle cx="413.04" cy="241.368" r="8.535"/>
<circle cx="275.92" cy="275.638" r="8.535"/>
<circle cx="340.46" cy="285.308" r="8.535"/>
<circle cx="405" cy="294.988" r="8.535"/>
<circle cx="267.88" cy="329.258" r="8.535"/>
<circle cx="332.42" cy="338.928" r="8.535"/>
<circle cx="396.96" cy="348.608" r="8.535"/>
<g>
</g>
<g>
</g>
<g>
</g>
<g>
</g>
<g>
</g>
<g>
</g>
<g>
</g>
<g>
</g>
<g>
</g>
<g>
</g>
<g>
</g>
<g>
</g>
<g>
</g>
<g>
</g>
<g>
</g>
</svg>
