<svg id="icons" enable-background="new 0 0 64 64" height="512" viewBox="0 0 64 64" width="512" xmlns="http://www.w3.org/2000/svg"><path d="m49.51 14c1.11 0 2 .89 2 2 0 .96-.68 1.771-1.6 1.96-.13.03-.26.04-.4.04h-4c-1.1 0-2-.9-2-2 0-.97.681-1.77 1.59-1.96.13-.03.27-.04.41-.04z" fill="#fc6e51"/><path d="m53.52 30c1.101 0 2 .89 2 2 0 1.1-.899 2-2 2h-9c-2.21 0-4-1.79-4-4s1.79-4 4-4h3.03c1.09 0 1.97.88 1.97 1.96v.04c0 1.1.891 2 2 2z" fill="#ed5565"/><path d="m39.51 16c0 1.1-.89 2-2 2h-4c-.069 0-.14 0-.21-.01-1-.11-1.79-.96-1.79-1.99 0-1.11.9-2 2-2h4c.55 0 1.05.22 1.42.58.36.37.58.87.58 1.42z" fill="#fc6e51"/><path d="m19 34c.83 0 1.5.67 1.5 1.5 0 .82-.67 1.5-1.5 1.5h-9c-.83 0-1.5-.68-1.5-1.5 0-.83.67-1.5 1.5-1.5z" fill="#965353"/><path d="m37.5 20c0-1.11.89-2 2-2h4c1.1 0 2 .89 2 2 0 1.03-.79 1.89-1.8 1.99h-4.41c-1.01-.1-1.79-.96-1.79-1.99z" fill="#fc6e51"/><path d="m19 28c.83 0 1.5.67 1.5 1.5 0 .82-.67 1.5-1.5 1.5h-9c-.83 0-1.5-.68-1.5-1.5 0-.83.67-1.5 1.5-1.5z" fill="#965353"/><path d="m44.52 37h9 6.98v21h-3-51-3v-21h6.5 9 10.51 11.49 3.49z" fill="#656d78"/><path d="m43.51 10c1.11 0 2 .89 2 2 0 .55-.22 1.05-.58 1.41-.37.36-.87.59-1.42.59h-4c-.14 0-.29-.02-.42-.04-.899-.2-1.58-1-1.58-1.96 0-1.11.9-2 2-2z" fill="#fc6e51"/><path d="m11.5 14c2.21 0 5 1.79 5 4 0 2.13-2.62 3.89-4.79 3.99h-.41c-2.12-.1-3.8-1.86-3.8-3.99 0-2.21 1.79-4 4-4z" fill="#f7c292"/><path d="m55.52 32v3c0 1.1-.899 2-2 2h-9c-.01 0-.02 0-.029 0-2.2-.02-3.971-1.8-3.971-4v-3c0 2.21 1.79 4 4 4h9c1.1 0 2-.9 2-2z" fill="#da4453"/><path d="m3.5 1v20.99 15.01h6.5c-.83 0-1.5-.68-1.5-1.5 0-.83.67-1.5 1.5-1.5-.83 0-1.5-.68-1.5-1.5 0-.83.67-1.5 1.5-1.5-.83 0-1.5-.68-1.5-1.5 0-.83.67-1.5 1.5-1.5h9c.83 0 1.5.67 1.5 1.5 0 .82-.67 1.5-1.5 1.5.83 0 1.5.67 1.5 1.5 0 .82-.67 1.5-1.5 1.5.83 0 1.5.67 1.5 1.5 0 .82-.67 1.5-1.5 1.5h10.51c-3.31 0-6-2.689-6-6 0-3.32 2.69-6 6-6 3.32 0 6 2.68 6 6 0 3.311-2.68 6-6 6h11.49 3.49c-2.2-.02-3.971-1.8-3.971-4v-3c0-2.21 1.79-4 4-4h3.03c1.09 0 1.97.88 1.97 1.96v.04c0 1.1.891 2 2 2h2c1.101 0 2 .89 2 2v3c0 1.1-.899 2-2 2h6.98v-15.01-20.99zm48.01 15c0 .96-.68 1.771-1.6 1.96-.13.03-.26.04-.4.04h-4c-1.1 0-2-.9-2-2 0-.97.681-1.77 1.59-1.96.13-.03.27-.04.41-.04h4c1.11 0 2 .89 2 2zm-12-6h4c1.11 0 2 .89 2 2 0 .55-.22 1.05-.58 1.41-.37.36-.87.59-1.42.59h-4c-.14 0-.29-.02-.42-.04-.899-.2-1.58-1-1.58-1.96 0-1.11.9-2 2-2zm-6 4h4c.55 0 1.05.22 1.42.58.36.37.58.87.58 1.42 0 1.1-.89 2-2 2h-4c-.069 0-.14 0-.21-.01-1-.11-1.79-.96-1.79-1.99 0-1.11.9-2 2-2zm-14.01-8c2.21 0 4 1.79 4 4s-1.79 4-4 4-5-1.79-5-4 2.79-4 5-4zm-8 16c-.07 0-.13 0-.2-.01-2.12-.1-3.8-1.86-3.8-3.99 0-2.21 1.79-4 4-4s5 1.79 5 4c0 2.13-2.62 3.89-4.79 3.99-.069.01-.14.01-.21.01zm16.79-.01c-1.01-.1-1.79-.96-1.79-1.99 0-1.11.89-2 2-2h4c.28 0 .54.05.78.15.71.31 1.22 1.02 1.22 1.85 0 1.03-.79 1.89-1.8 1.99zm11 0c-1.01-.1-1.79-.96-1.79-1.99 0-1.11.89-2 2-2h4c1.1 0 2 .89 2 2 0 1.03-.79 1.89-1.8 1.99zm11 0c-1.01-.1-1.79-.96-1.79-1.99 0-.92.61-1.68 1.44-1.92.18-.05.36-.08.56-.08h4c1.1 0 2 .89 2 2 0 1.03-.79 1.89-1.8 1.99z" fill="#e6e9ed"/><path d="m19 31c.83 0 1.5.67 1.5 1.5 0 .82-.67 1.5-1.5 1.5h-9c-.83 0-1.5-.68-1.5-1.5 0-.83.67-1.5 1.5-1.5z" fill="#844747"/><path d="m19.5 6c2.21 0 4 1.79 4 4s-1.79 4-4 4-5-1.79-5-4 2.79-4 5-4z" fill="#f7c292"/><path d="m33.28 18.15c.71.31 1.22 1.02 1.22 1.85 0 1.03-.79 1.89-1.8 1.99h-4.41c-1.01-.1-1.79-.96-1.79-1.99 0-1.11.89-2 2-2h4c.28 0 .54.05.78.15z" fill="#fc6e51"/><path d="m29.51 25c3.32 0 6 2.68 6 6 0 3.311-2.68 6-6 6-3.31 0-6-2.689-6-6 0-3.32 2.69-6 6-6z" fill="#965353"/><path d="m54.5 18c1.1 0 2 .89 2 2 0 1.03-.79 1.89-1.8 1.99h-4.41c-1.01-.1-1.79-.96-1.79-1.99 0-.92.61-1.68 1.44-1.92.18-.05.36-.08.56-.08z" fill="#fc6e51"/><path d="m6.5 58h51v5h-51z" fill="#545c66"/><path d="m60.5 59h-57c-.553 0-1-.447-1-1v-21c0-.553.447-1 1-1h57c.553 0 1 .447 1 1v21c0 .553-.447 1-1 1zm-56-2h55v-19h-55z"/><path d="m57.499 64h-50.998c-.553 0-1-.447-1-1v-5c0-.553.447-1 1-1s1 .447 1 1v4h48.998v-4c0-.553.447-1 1-1s1 .447 1 1v5c0 .553-.447 1-1 1z"/><path d="m3.5 38c-.553 0-1-.447-1-1v-36c0-.553.447-1 1-1s1 .447 1 1v36c0 .553-.447 1-1 1z"/><path d="m60.5 2h-57c-.553 0-1-.447-1-1s.447-1 1-1h57c.553 0 1 .447 1 1s-.447 1-1 1z"/><path d="m60.5 38c-.553 0-1-.447-1-1v-36c0-.553.447-1 1-1s1 .447 1 1v36c0 .553-.447 1-1 1z"/><path d="m60.5 22.996h-57c-.553 0-1-.447-1-1s.447-1 1-1h57c.553 0 1 .447 1 1s-.447 1-1 1z"/><path d="m44.488 38h-3.488c-.553 0-1-.447-1-1s.447-1 1-1h3.488c.553 0 1 .447 1 1s-.447 1-1 1z"/><path d="m10 38c-1.379 0-2.5-1.121-2.5-2.5s1.121-2.5 2.5-2.5c.553 0 1 .447 1 1s-.447 1-1 1c-.275 0-.5.225-.5.5s.225.5.5.5c.553 0 1 .447 1 1s-.447 1-1 1z"/><path d="m18.996 38c-.553 0-1-.447-1-1s.447-1 1-1c.275 0 .5-.225.5-.5s-.225-.5-.5-.5c-.553 0-1-.447-1-1s.447-1 1-1c1.379 0 2.5 1.121 2.5 2.5s-1.121 2.5-2.5 2.5z"/><path d="m18.996 35h-8.996c-.553 0-1-.447-1-1s.447-1 1-1h8.996c.553 0 1 .447 1 1s-.447 1-1 1z"/><path d="m10 35c-1.379 0-2.5-1.121-2.5-2.5s1.121-2.5 2.5-2.5c.553 0 1 .447 1 1s-.447 1-1 1c-.275 0-.5.225-.5.5s.225.5.5.5c.553 0 1 .447 1 1s-.447 1-1 1z"/><path d="m18.996 35c-.553 0-1-.447-1-1s.447-1 1-1c.275 0 .5-.225.5-.5s-.225-.5-.5-.5c-.553 0-1-.447-1-1s.447-1 1-1c1.379 0 2.5 1.121 2.5 2.5s-1.121 2.5-2.5 2.5z"/><path d="m18.996 32h-8.996c-.553 0-1-.447-1-1s.447-1 1-1h8.996c.553 0 1 .447 1 1s-.447 1-1 1z"/><path d="m10 32c-1.379 0-2.5-1.121-2.5-2.5s1.121-2.5 2.5-2.5c.553 0 1 .447 1 1s-.447 1-1 1c-.275 0-.5.225-.5.5s.225.5.5.5c.553 0 1 .447 1 1s-.447 1-1 1z"/><path d="m18.996 32c-.553 0-1-.447-1-1s.447-1 1-1c.275 0 .5-.225.5-.5s-.225-.5-.5-.5c-.553 0-1-.447-1-1s.447-1 1-1c1.379 0 2.5 1.121 2.5 2.5s-1.121 2.5-2.5 2.5z"/><path d="m18.996 29h-8.996c-.553 0-1-.447-1-1s.447-1 1-1h8.996c.553 0 1 .447 1 1s-.447 1-1 1z"/><path d="m29.513 38c-3.859 0-7-3.141-7-7.001 0-3.859 3.141-6.999 7-6.999s7 3.14 7 6.999c0 3.86-3.141 7.001-7 7.001zm0-12c-2.757 0-5 2.242-5 4.999 0 2.758 2.243 5.001 5 5.001s5-2.243 5-5.001c0-2.757-2.243-4.999-5-4.999z"/><path d="m27.526 31.995c-.553 0-1.005-.447-1.005-1s.442-1 .994-1h.011c.552 0 1 .447 1 1s-.448 1-1 1z"/><path d="m31.53 31.995c-.553 0-1.005-.447-1.005-1s.442-1 .994-1h.011c.552 0 1 .447 1 1s-.448 1-1 1z"/><path d="m29.524 33.993c-.553 0-1.005-.447-1.005-1s.442-1 .994-1h.011c.552 0 1 .447 1 1s-.448 1-1 1z"/><path d="m29.524 29.997c-.553 0-1.005-.447-1.005-1s.442-1 .994-1h.011c.552 0 1 .447 1 1s-.448 1-1 1z"/><path d="m53.516 35c-.552 0-1-.447-1-.999s.447-.999.999-1c.552 0 1.001-.449 1.001-1.001s-.448-1-1-1c-.553 0-1-.447-1-1s.447-1 1-1c1.654 0 3 1.346 3 3s-1.346 3-3 3z"/><path d="m44.517 35.001c-2.757 0-5-2.243-5-5 0-2.758 2.243-5.002 5-5.002.553 0 1 .447 1 1s-.447 1-1 1c-1.654 0-3 1.347-3 3.002 0 1.654 1.346 3 3 3 .553 0 1 .447 1 1s-.448 1-1 1z"/><path d="m51.514 31.001c-1.654 0-3-1.346-3-3 0-.553.447-1 1-1s1 .447 1 1c0 .552.448 1 1 1 .553 0 1 .447 1 1s-.448 1-1 1z"/><path d="m49.515 28.968c-.553 0-1-.447-1-1 0-.534-.435-.969-.969-.969-.553 0-1-.447-1-1s.447-1 1-1c1.637 0 2.969 1.332 2.969 2.969 0 .553-.448 1-1 1z"/><path d="m47.546 26.999h-3.029c-.553 0-1-.447-1-1s.447-1 1-1h3.029c.553 0 1 .447 1 1s-.447 1-1 1z"/><path d="m53.516 38.002c-.552 0-1-.447-1-.999s.447-.999.999-1c.552 0 1.001-.449 1.001-1.001 0-.553.447-1 1-1s1 .447 1 1c0 1.654-1.346 3-3 3z"/><path d="m44.517 38.004c-2.757 0-5-2.243-5-5 0-.553.447-1 1-1s1 .447 1 1c0 1.654 1.346 3 3 3 .553 0 1 .447 1 1s-.448 1-1 1z"/><path d="m55.516 36.002c-.553 0-1-.447-1-1v-3.002c0-.553.447-1 1-1s1 .447 1 1v3.002c0 .553-.448 1-1 1z"/><path d="m40.517 34.004c-.553 0-1-.447-1-1v-3.003c0-.553.447-1 1-1s1 .447 1 1v3.003c0 .553-.448 1-1 1z"/><path d="m45.547 30.993c-.553 0-1.005-.447-1.005-1s.442-1 .994-1h.011c.552 0 1 .447 1 1s-.448 1-1 1z"/><path d="m53.516 35.001h-8.999c-.553 0-1-.447-1-1s.447-1 1-1h8.999c.553 0 1 .447 1 1s-.448 1-1 1z"/><path d="m53.516 38.002h-8.999c-.553 0-1-.447-1-1s.447-1 1-1h8.999c.553 0 1 .447 1 1s-.448 1-1 1z"/><path d="m51.514 31.001c-.552 0-1-.447-1-1 0-.552.447-1 1-1l2.002-.001c.552 0 1 .447 1 .999 0 .553-.447 1.001-1 1.001z"/><path d="m11.5 23c-2.757 0-5-2.243-5-5s2.243-5 5-5c2.775 0 6.001 2.185 6.001 5s-3.226 5-6.001 5zm0-8c-1.654 0-3 1.346-3 3s1.346 3 3 3c1.747 0 4.001-1.455 4.001-3s-2.254-3-4.001-3z"/><path d="m22.498 19h-5.997c-.553 0-1-.447-1-1s.447-1 1-1h5.997c.553 0 1 .447 1 1s-.447 1-1 1z"/><path d="m22.498 20c-.553 0-1-.447-1-1v-2c0-.553.447-1 1-1s1 .447 1 1v2c0 .553-.447 1-1 1z"/><path d="m19.499 15.002c-2.775 0-6.001-2.185-6.001-5s3.226-5 6.001-5c2.757 0 5 2.243 5 5s-2.243 5-5 5zm0-8c-1.747 0-4.001 1.455-4.001 3s2.254 3 4.001 3c1.654 0 3-1.346 3-3s-1.346-3-3-3z"/><path d="m14.498 11.002h-5.997c-.553 0-1-.447-1-1s.447-1 1-1h5.997c.553 0 1 .447 1 1s-.447 1-1 1z"/><path d="m8.501 12.002c-.553 0-1-.447-1-1v-2c0-.553.447-1 1-1s1 .447 1 1v2c0 .553-.447 1-1 1z"/><path d="m28.494 23c-1.654 0-3-1.346-3-3s1.346-3 3-3c.553 0 1 .447 1 1s-.447 1-1 1c-.552 0-1 .448-1 1s.448 1 1 1c.553 0 1 .447 1 1s-.447 1-1 1z"/><path d="m32.494 23c-.553 0-1-.447-1-1s.447-1 1-1c.552 0 1-.448 1-1s-.448-1-1-1c-.553 0-1-.447-1-1s.447-1 1-1c1.654 0 3 1.346 3 3s-1.346 3-3 3z"/><path d="m32.494 19h-4c-.553 0-1-.447-1-1s.447-1 1-1h4c.553 0 1 .447 1 1s-.447 1-1 1z"/><path d="m39.495 23c-1.654 0-3-1.346-3-3s1.346-3 3-3c.553 0 1 .447 1 1s-.447 1-1 1c-.552 0-1 .448-1 1s.448 1 1 1c.553 0 1 .447 1 1s-.447 1-1 1z"/><path d="m43.495 23c-.553 0-1-.447-1-1s.447-1 1-1c.552 0 1-.448 1-1s-.448-1-1-1c-.553 0-1-.447-1-1s.447-1 1-1c1.654 0 3 1.346 3 3s-1.346 3-3 3z"/><path d="m43.495 19h-4c-.553 0-1-.447-1-1s.447-1 1-1h4c.553 0 1 .447 1 1s-.447 1-1 1z"/><path d="m33.509 19c-1.654 0-3-1.346-3-3s1.346-3 3-3c.553 0 1 .447 1 1s-.447 1-1 1c-.552 0-1 .448-1 1s.448 1 1 1c.553 0 1 .447 1 1s-.447 1-1 1z"/><path d="m37.509 19c-.553 0-1-.447-1-1s.447-1 1-1c.552 0 1-.448 1-1s-.448-1-1-1c-.553 0-1-.447-1-1s.447-1 1-1c1.654 0 3 1.346 3 3s-1.346 3-3 3z"/><path d="m37.509 15h-4c-.553 0-1-.447-1-1s.447-1 1-1h4c.553 0 1 .447 1 1s-.447 1-1 1z"/><path d="m45.511 19c-1.654 0-3-1.346-3-3s1.346-3 3-3c.553 0 1 .447 1 1s-.447 1-1 1c-.552 0-1 .448-1 1s.448 1 1 1c.553 0 1 .447 1 1s-.448 1-1 1z"/><path d="m49.511 19c-.553 0-1-.447-1-1s.447-1 1-1c.552 0 1-.448 1-1s-.448-1-1-1c-.553 0-1-.447-1-1s.447-1 1-1c1.654 0 3 1.346 3 3s-1.346 3-3 3z"/><path d="m49.511 15h-4c-.553 0-1-.447-1-1s.447-1 1-1h4c.553 0 1 .447 1 1s-.448 1-1 1z"/><path d="m50.496 23c-1.654 0-3-1.346-3-3s1.346-3 3-3c.553 0 1 .447 1 1s-.447 1-1 1c-.552 0-1 .448-1 1s.448 1 1 1c.553 0 1 .447 1 1s-.447 1-1 1z"/><path d="m54.496 23c-.553 0-1-.447-1-1s.447-1 1-1c.552 0 1-.448 1-1s-.448-1-1-1c-.553 0-1-.447-1-1s.447-1 1-1c1.654 0 3 1.346 3 3s-1.346 3-3 3z"/><path d="m54.496 19h-4c-.553 0-1-.447-1-1s.447-1 1-1h4c.553 0 1 .447 1 1s-.447 1-1 1z"/><path d="m37.509 19h-4c-.553 0-1-.447-1-1s.447-1 1-1h4c.553 0 1 .447 1 1s-.447 1-1 1z"/><path d="m39.51 15c-1.654 0-3-1.346-3-3s1.346-3 3-3c.553 0 1 .447 1 1s-.447 1-1 1c-.552 0-1 .448-1 1s.448 1 1 1c.553 0 1 .447 1 1s-.447 1-1 1z"/><path d="m43.51 15c-.553 0-1-.447-1-1s.447-1 1-1c.552 0 1-.448 1-1s-.448-1-1-1c-.553 0-1-.447-1-1s.447-1 1-1c1.654 0 3 1.346 3 3s-1.346 3-3 3z"/><path d="m43.51 11h-4c-.553 0-1-.447-1-1s.447-1 1-1h4c.553 0 1 .447 1 1s-.447 1-1 1z"/><path d="m43.51 15h-4c-.553 0-1-.447-1-1s.447-1 1-1h4c.553 0 1 .447 1 1s-.447 1-1 1z"/><path d="m49.511 19h-4c-.553 0-1-.447-1-1s.447-1 1-1h4c.553 0 1 .447 1 1s-.448 1-1 1z"/></svg>