<svg height="512" viewBox="0 0 512 512" width="512" xmlns="http://www.w3.org/2000/svg"><g id="filled_outline" data-name="filled outline"><path d="m175.998 31.994h54.348v96h-54.348z" fill="#ebebeb"/><path d="m207.998 31.994h8v96h-8z" fill="#e4e4e2"/><path d="m448 287.994h-64v48h48a8 8 0 0 1 8 8v32a8 8 0 0 1 -8 8h-56v48h72a40 40 0 0 0 40-40v-64a40 40 0 0 0 -40-40z" fill="#ebebeb"/><path d="m410.045 383.994h-34.047v48h29.081z" fill="#dbdbdb"/><path d="m383.998 335.994h31.013l4.965-48h-35.978z" fill="#dbdbdb"/><path d="m375.998 487.994h-208l-24-232h256z" fill="#69b9e7"/><path d="m272 415.228a13.315 13.315 0 0 1 12.853 9.838l5.339 19.741a11.186 11.186 0 0 0 11.187 11.187 11.187 11.187 0 0 0 10.976-9.022l8.412-42.648 2.853-6.881a96.164 96.164 0 0 0 6.718-47.7 22.639 22.639 0 0 0 -22.494-20.081 22.639 22.639 0 0 0 -17.137 7.845l-18.707 21.667-18.706-21.668a22.639 22.639 0 0 0 -17.137-7.845 22.639 22.639 0 0 0 -22.5 20.081 96.164 96.164 0 0 0 6.718 47.7l2.854 6.881 8.412 42.648a11.187 11.187 0 0 0 10.975 9.022 11.187 11.187 0 0 0 11.188-11.187l5.339-19.741a13.314 13.314 0 0 1 12.857-9.837z" fill="#ebebeb"/><path d="m272 391.264a56.473 56.473 0 0 1 -17.82-2.875 8 8 0 0 1 5.062-15.18 40.6 40.6 0 0 0 25.516 0 8 8 0 0 1 5.063 15.18 56.479 56.479 0 0 1 -17.821 2.875z" fill="#dbdbdb"/><g fill="#f8bb59"><path d="m360.03 296.123h16v15.922h-16z"/><path d="m344.03 312.072h16v15.922h-16z"/><path d="m344.03 280.072h16v15.922h-16z"/><path d="m328.03 296.123h16v15.922h-16z"/></g><path d="m232 255.994h-32v-72l16-56v-96a8 8 0 0 1 8-8h16a8 8 0 0 1 8 8v96l-16 56z" fill="#f5b02e"/><path d="m175.998 87.994h40v16h-40z" fill="#dbdbdb"/><path d="m175.998 55.994h40v16h-40z" fill="#dbdbdb"/><path d="m207.998 87.994h8v16h-8z" fill="#cbcbcb"/><path d="m207.998 55.994h8v16h-8z" fill="#cbcbcb"/><path d="m376 255.994h-96v-78.059a81.941 81.941 0 0 1 24-57.941h48a81.941 81.941 0 0 1 24 57.941z" fill="#a8e6c7"/><path d="m303.998 71.994h48v48h-48z" fill="#97d9a9"/><path d="m311.998 207.994h64v48h-64z" fill="#ebebeb"/><path d="m311.998 239.994h64v16h-64z" fill="#dbdbdb"/><path d="m335.998 167.994h40v16h-40z" fill="#97d9a9"/><path d="m303.998 167.994h16v16h-16z" fill="#97d9a9"/><path d="m144 127.876-3.559 1.668a54.094 54.094 0 0 0 -24.841 23.639l-3.487 6.575-3.487-6.575a54.1 54.1 0 0 0 -24.837-23.639l-3.559-1.668a54.1 54.1 0 0 0 29.333-26.7l2.55-5.184 2.549 5.184a54.1 54.1 0 0 0 29.338 26.7z" fill="#fbe595"/><path d="m112 55.876-3.559 1.668a54.094 54.094 0 0 0 -24.841 23.639l-3.487 6.575-3.487-6.575a54.1 54.1 0 0 0 -24.834-23.639l-3.559-1.668a54.1 54.1 0 0 0 29.333-26.7l2.55-5.184 2.549 5.184a54.1 54.1 0 0 0 29.335 26.7z" fill="#fbeebd"/><path d="m199.998 239.994h32v16h-32z" fill="#ec9e15"/><path d="m307.842 321.662a30.617 30.617 0 0 0 -23.195 10.617l-12.647 14.653-12.65-14.657a30.64 30.64 0 0 0 -53.633 16.563 104.45 104.45 0 0 0 7.273 51.668l2.547 6.145 8.258 41.863a19.184 19.184 0 0 0 37.969-2.508l5.1-18.852a5.319 5.319 0 0 1 10.266 0l5.1 18.852a19.183 19.183 0 0 0 37.968 2.512l8.258-41.867 2.547-6.145a104.45 104.45 0 0 0 7.274-51.668 30.609 30.609 0 0 0 -30.435-27.176zm8.383 72.719-2.852 6.879a7.92 7.92 0 0 0 -.461 1.516l-8.412 42.652a3.182 3.182 0 0 1 -6.3-.621 7.842 7.842 0 0 0 -.282-2.09l-5.343-19.742a21.31 21.31 0 0 0 -41.141 0l-5.344 19.742a7.881 7.881 0 0 0 -.281 2.09 3.182 3.182 0 0 1 -6.305.617l-8.414-42.648a7.92 7.92 0 0 0 -.461-1.516l-2.851-6.879a88.448 88.448 0 0 1 -6.165-43.738 14.646 14.646 0 0 1 25.633-7.911l18.7 21.668a8.257 8.257 0 0 0 12.11 0l18.7-21.664a14.644 14.644 0 0 1 25.633 7.907 88.436 88.436 0 0 1 -6.164 43.738z"/><path d="m284.756 373.209a40.6 40.6 0 0 1 -25.516 0 8 8 0 0 0 -5.062 15.18 56.667 56.667 0 0 0 35.641 0 8 8 0 0 0 -5.063-15.18z"/><path d="m360.03 296.123h16v15.922h-16z"/><path d="m344.03 312.072h16v15.922h-16z"/><path d="m344.03 280.072h16v15.922h-16z"/><path d="m328.03 296.123h16v15.922h-16z"/><path d="m448 279.994h-42.438l2.4-23.176a8.008 8.008 0 0 0 -7.962-8.824h-16v-70.059a89.243 89.243 0 0 0 -24-61.013v-44.928a8 8 0 0 0 -8-8h-48a8 8 0 0 0 -8 8v44.928a89.248 89.248 0 0 0 -24 61.013v70.059h-32v-62.879l15.7-54.922a8.022 8.022 0 0 0 .3-2.2v-96a16.018 16.018 0 0 0 -16-16h-16a15.947 15.947 0 0 0 -13.774 8h-34.226a8 8 0 0 0 -8 8v96a8 8 0 0 0 8 8h29.394l-13.094 45.807a8.061 8.061 0 0 0 -.305 2.2v64h-47.995a8.008 8.008 0 0 0 -7.961 8.824l24 232a8 8 0 0 0 7.961 7.17h208a8 8 0 0 0 7.961-7.175l5.051-48.825h58.988a48.053 48.053 0 0 0 48-48v-64a48.053 48.053 0 0 0 -48-48zm-49.058 64h33.058v32h-36.369zm-30.943-96h-47.999v-32h48zm-56-168h32v32h-31.999zm-24 97.941a73.4 73.4 0 0 1 19.414-49.941h41.172a73.226 73.226 0 0 1 18.677 40h-31.262v16h32v16h-56a8 8 0 0 0 -8 8v40h-16zm-103.999-105.941h24v16h-24zm24-32v16h-24v-16zm-24 64h24v16h-24zm24 81.121 15.7-54.922a8.022 8.022 0 0 0 .3-2.2v-96h16v94.879l-15.7 54.928a8.061 8.061 0 0 0 -.305 2.2v64h-15.995zm-32.783 294.879-22.352-216h238.266l-22.351 216zm304.782-88a32.034 32.034 0 0 1 -32 32h-57.334l3.31-32h38.025a16.019 16.019 0 0 0 16-16v-32a16.019 16.019 0 0 0 -16-16h-31.4l3.31-32h44.09a32.035 32.035 0 0 1 32 32z"/><path d="m303.998 167.994h16v16h-16z"/><path d="m147.389 135.123a8 8 0 0 0 -.547-14.727 45.946 45.946 0 0 1 -25-22.746l-2.542-5.184c-2.688-5.476-11.672-5.476-14.36 0l-2.546 5.18a45.937 45.937 0 0 1 -25 22.75 8 8 0 0 0 -.546 14.727l3.554 1.664a46.425 46.425 0 0 1 21.164 20.14l3.485 6.579a8 8 0 0 0 14.14 0l3.485-6.575a46.405 46.405 0 0 1 21.156-20.14zm-35.274 8.394a62.687 62.687 0 0 0 -15.215-15.517 61.714 61.714 0 0 0 15.211-15.391 61.714 61.714 0 0 0 15.215 15.391 62.687 62.687 0 0 0 -15.211 15.517z"/><path d="m114.842 48.4a45.943 45.943 0 0 1 -25-22.746l-2.542-5.188c-2.688-5.476-11.672-5.476-14.36 0l-2.547 5.18a45.932 45.932 0 0 1 -25 22.75 8 8 0 0 0 -.546 14.727l3.553 1.664a46.42 46.42 0 0 1 21.16 20.14l3.485 6.578a8 8 0 0 0 14.14 0l3.485-6.574a46.4 46.4 0 0 1 21.156-20.14l3.563-1.668a8 8 0 0 0 -.547-14.727zm-34.727 23.117a62.669 62.669 0 0 0 -15.215-15.517 61.714 61.714 0 0 0 15.215-15.393 61.714 61.714 0 0 0 15.211 15.393 62.669 62.669 0 0 0 -15.211 15.517z"/></g></svg>