<svg id="icons" enable-background="new 0 0 64 64" height="512" viewBox="0 0 64 64" width="512" xmlns="http://www.w3.org/2000/svg"><path d="m16.5 22h-6l3-3z" fill="#ffce54"/><path d="m13.5 7h10l3 3h-10z" fill="#f6bb42"/><path d="m13.5 4h10v3h-10z" fill="#ffce54"/><path d="m13.5 7 3 3h-2.92-3.08z" fill="#ffce54"/><path d="m52.5 7v15h-1-4c1.1 0 2-.89 2-2 0-1.1-.9-2-2-2 1.1 0 2-.89 2-2 0-1.1-.9-2-2-2 1.1 0 2-.89 2-2 0-1.1-.9-2-2-2h-9c-1.11 0-2 .9-2 2 0 1.11.89 2 2 2-1.11 0-2 .9-2 2 0 1.11.89 2 2 2-1.11 0-2 .9-2 2 0 1.11.89 2 2 2h-5v-15z" fill="#f5f7fa"/><path d="m47.5 10c1.1 0 2 .9 2 2 0 1.11-.9 2-2 2h-9c-1.11 0-2-.89-2-2 0-1.1.89-2 2-2z" fill="#fc6e51"/><path d="m47.5 18c1.1 0 2 .9 2 2 0 1.11-.9 2-2 2h-5-4c-1.11 0-2-.89-2-2 0-1.1.89-2 2-2z" fill="#fc6e51"/><path d="m13.5 19-3 3v-12h3.08z" fill="#edab37"/><path d="m9.5 26h4v11h-4z" fill="#4a89dc"/><path d="m33.5 4h19v3h-19z" fill="#ed5565"/><path d="m16.5 10h10v12h-10z" fill="#ffce54"/><path d="m16.5 10v12l-3-3 .08-9z" fill="#f6bb42"/><path d="m44.49 30-.99 7h-2.5-3.5l-1-7z" fill="#fff"/><path d="m54.5 30-1 7h-6l-1-7z" fill="#fff"/><path d="m52.5 1h-29-20v21 15h6v-11h4 18v11h6l-1-7h7.99l-.99 7h.99 3.01l-1-7h8l-1 7h7v-15-21zm-26 21h-10-6v-12l3-3v-3h10v3l3 3zm26-15v15h-1-4-5-4-5v-15-3h19z" fill="#ccd1d9"/><path d="m47.5 14c1.1 0 2 .9 2 2 0 1.11-.9 2-2 2h-9c-1.11 0-2-.89-2-2 0-1.1.89-2 2-2z" fill="#e9573f"/><path d="m13.5 26h18v11h-18z" fill="#5d9cec"/><path d="m6.5 58h51v5h-51z" fill="#545c66"/><path d="m60.5 37v21h-3-51-3v-21h6 4 18 6 3.5 2.5.99 3.01 6z" fill="#656d78"/><path d="m60.5 59h-57c-.553 0-1-.447-1-1v-21c0-.553.447-1 1-1h57c.553 0 1 .447 1 1v21c0 .553-.447 1-1 1zm-56-2h55v-19h-55z"/><path d="m57.499 64h-50.998c-.553 0-1-.447-1-1v-5c0-.553.447-1 1-1s1 .447 1 1v4h48.998v-4c0-.553.447-1 1-1s1 .447 1 1v5c0 .553-.447 1-1 1z"/><path d="m3.5 38c-.553 0-1-.447-1-1v-36c0-.553.447-1 1-1s1 .447 1 1v36c0 .553-.447 1-1 1z"/><path d="m60.5 2h-57c-.553 0-1-.447-1-1s.447-1 1-1h57c.553 0 1 .447 1 1s-.447 1-1 1z"/><path d="m60.5 38c-.553 0-1-.447-1-1v-36c0-.553.447-1 1-1s1 .447 1 1v36c0 .553-.447 1-1 1z"/><path d="m60.5 22.996h-57c-.553 0-1-.447-1-1s.447-1 1-1h57c.553 0 1 .447 1 1s-.447 1-1 1z"/><path d="m44.488 38h-3.488c-.553 0-1-.447-1-1s.447-1 1-1h3.488c.553 0 1 .447 1 1s-.447 1-1 1z"/><path d="m52.497 23c-.553 0-1-.447-1-1v-17h-17.002v17c0 .553-.447 1-1 1s-1-.447-1-1v-18c0-.553.447-1 1-1h19.002c.553 0 1 .447 1 1v18c0 .553-.447 1-1 1z"/><path d="m52.497 7.999h-19.002c-.553 0-1-.447-1-1s.447-1 1-1h19.002c.553 0 1 .447 1 1s-.447 1-1 1z"/><path d="m38.496 19.004c-1.654 0-3-1.346-3-3s1.346-3 3-3c.553 0 1 .447 1 1s-.447 1-1 1c-.552 0-1 .448-1 1s.448 1 1 1c.553 0 1 .447 1 1s-.447 1-1 1z"/><path d="m47.496 19.004c-.553 0-1-.447-1-1s.447-1 1-1c.552 0 1-.448 1-1s-.448-1-1-1c-.553 0-1-.447-1-1s.447-1 1-1c1.654 0 3 1.346 3 3s-1.346 3-3 3z"/><path d="m47.496 15.004h-9c-.553 0-1-.447-1-1s.447-1 1-1h9c.553 0 1 .447 1 1s-.447 1-1 1z"/><path d="m38.496 15c-1.654 0-3-1.346-3-3s1.346-3 3-3c.553 0 1 .447 1 1s-.447 1-1 1c-.552 0-1 .448-1 1s.448 1 1 1c.553 0 1 .447 1 1s-.447 1-1 1z"/><path d="m47.496 15c-.553 0-1-.447-1-1s.447-1 1-1c.552 0 1-.448 1-1s-.448-1-1-1c-.553 0-1-.447-1-1s.447-1 1-1c1.654 0 3 1.346 3 3s-1.346 3-3 3z"/><path d="m47.496 11h-9c-.553 0-1-.447-1-1s.447-1 1-1h9c.553 0 1 .447 1 1s-.447 1-1 1z"/><path d="m47.496 19.004h-9c-.553 0-1-.447-1-1s.447-1 1-1h9c.553 0 1 .447 1 1s-.447 1-1 1z"/><path d="m38.496 23.003c-1.654 0-3-1.346-3-3s1.346-3 3-3c.553 0 1 .447 1 1s-.447 1-1 1c-.552 0-1 .448-1 1s.448 1 1 1c.553 0 1 .447 1 1s-.447 1-1 1z"/><path d="m47.496 23.003c-.553 0-1-.447-1-1s.447-1 1-1c.552 0 1-.448 1-1s-.448-1-1-1c-.553 0-1-.447-1-1s.447-1 1-1c1.654 0 3 1.346 3 3s-1.346 3-3 3z"/><path d="m47.496 19.003h-9c-.553 0-1-.447-1-1s.447-1 1-1h9c.553 0 1 .447 1 1s-.447 1-1 1z"/><path d="m51.5 23.003h-9c-.553 0-1-.447-1-1s.447-1 1-1h9c.553 0 1 .447 1 1s-.447 1-1 1z"/><path d="m36.496 13h-1c-.553 0-1-.447-1-1s.447-1 1-1h1c.553 0 1 .447 1 1s-.447 1-1 1z"/><path d="m50.496 13h-1c-.553 0-1-.447-1-1s.447-1 1-1h1c.553 0 1 .447 1 1s-.447 1-1 1z"/><path d="m36.496 17h-1c-.553 0-1-.447-1-1s.447-1 1-1h1c.553 0 1 .447 1 1s-.447 1-1 1z"/><path d="m50.496 17h-1c-.553 0-1-.447-1-1s.447-1 1-1h1c.553 0 1 .447 1 1s-.447 1-1 1z"/><path d="m36.496 21h-1c-.553 0-1-.447-1-1s.447-1 1-1h1c.553 0 1 .447 1 1s-.447 1-1 1z"/><path d="m50.496 21h-1c-.553 0-1-.447-1-1s.447-1 1-1h1c.553 0 1 .447 1 1s-.447 1-1 1z"/><path d="m16.502 11.002c-.256 0-.512-.098-.707-.293l-3-3c-.391-.391-.391-1.023 0-1.414s1.023-.391 1.414 0l3 3c.391.391.391 1.023 0 1.414-.195.195-.451.293-.707.293z"/><path d="m10.502 11.002c-.256 0-.512-.098-.707-.293-.391-.391-.391-1.023 0-1.414l3-3c.391-.391 1.023-.391 1.414 0s.391 1.023 0 1.414l-3 3c-.195.195-.451.293-.707.293z"/><path d="m16.502 23c-.256 0-.512-.098-.707-.293l-3-3c-.391-.391-.391-1.023 0-1.414s1.023-.391 1.414 0l3 3c.391.391.391 1.023 0 1.414-.195.195-.451.293-.707.293z"/><path d="m10.502 23c-.256 0-.512-.098-.707-.293-.391-.391-.391-1.023 0-1.414l3-3c.391-.391 1.023-.391 1.414 0s.391 1.023 0 1.414l-3 3c-.195.195-.451.293-.707.293z"/><path d="m26.502 11.002c-.256 0-.512-.098-.707-.293l-3-3c-.391-.391-.391-1.023 0-1.414s1.023-.391 1.414 0l3 3c.391.391.391 1.023 0 1.414-.195.195-.451.293-.707.293z"/><path d="m23.502 8.002h-10c-.553 0-1-.447-1-1s.447-1 1-1h10c.553 0 1 .447 1 1s-.447 1-1 1z"/><path d="m26.502 11.002h-10c-.553 0-1-.447-1-1s.447-1 1-1h10c.553 0 1 .447 1 1s-.447 1-1 1z"/><path d="m26.502 23.001c-.553 0-1-.447-1-1v-11.999c0-.553.447-1 1-1s1 .447 1 1v11.999c0 .553-.447 1-1 1z"/><path d="m16.502 22.996c-.553 0-1-.447-1-1v-11.994c0-.553.447-1 1-1s1 .447 1 1v11.994c0 .553-.447 1-1 1z"/><path d="m10.502 23.001c-.553 0-1-.447-1-1v-11.999c0-.553.447-1 1-1s1 .447 1 1v11.999c0 .553-.447 1-1 1z"/><path d="m16.502 11.002h-6c-.553 0-1-.447-1-1s.447-1 1-1h6c.553 0 1 .447 1 1s-.447 1-1 1z"/><path d="m13.502 20c-.003 0-.006 0-.009 0-.553-.005-.996-.457-.991-1.009l.083-9.084c.005-.55.452-.991 1-.991h.009c.553.005.996.457.991 1.009l-.083 9.084c-.005.55-.452.991-1 .991z"/><path d="m13.502 8.002c-.553 0-1-.447-1-1v-3.002c0-.553.447-1 1-1s1 .447 1 1v3.002c0 .553-.447 1-1 1z"/><path d="m23.502 5h-10c-.553 0-1-.447-1-1s.447-1 1-1h10c.553 0 1 .447 1 1s-.447 1-1 1z"/><path d="m23.502 8.002c-.553 0-1-.447-1-1v-3.002c0-.553.447-1 1-1s1 .447 1 1v3.002c0 .553-.447 1-1 1z"/><path d="m13.502 38h-4c-.553 0-1-.447-1-1v-11c0-.553.447-1 1-1h4c.553 0 1 .447 1 1v11c0 .553-.447 1-1 1zm-3-2h2v-9h-2z"/><path d="m31.502 38h-18c-.553 0-1-.447-1-1v-11c0-.553.447-1 1-1h18c.553 0 1 .447 1 1v11c0 .553-.447 1-1 1zm-17-2h16v-9h-16z"/><path d="m26.502 31h-7.999c-.553 0-1-.447-1-1s.447-1 1-1h7.999c.553 0 1 .447 1 1s-.447 1-1 1z"/><path d="m24.502 34h-3.999c-.553 0-1-.447-1-1s.447-1 1-1h3.999c.553 0 1 .447 1 1s-.447 1-1 1z"/><path d="m55.497 31.003h-20.003c-.553 0-1-.447-1-1s.447-1 1-1h20.003c.553 0 1 .447 1 1s-.447 1-1 1z"/><path d="m37.495 38c-.49 0-.918-.359-.989-.858l-1-6.997c-.078-.547.302-1.054.849-1.132.549-.083 1.054.302 1.132.849l1 6.997c.078.547-.302 1.054-.849 1.132-.048.006-.096.009-.143.009z"/><path d="m43.498 38c-.047 0-.094-.003-.142-.01-.547-.078-.928-.585-.85-1.131l.997-6.997c.078-.547.587-.929 1.131-.85.547.078.928.585.85 1.131l-.997 6.997c-.071.5-.499.86-.989.86z"/><path d="m47.498 38c-.49 0-.918-.359-.989-.858l-1-6.997c-.078-.547.302-1.054.849-1.132.544-.083 1.054.302 1.132.849l1 6.997c.078.547-.302 1.054-.849 1.132-.048.006-.096.009-.143.009z"/><path d="m53.501 38c-.047 0-.094-.003-.142-.01-.547-.078-.928-.585-.85-1.131l.997-6.997c.078-.547.582-.929 1.131-.85.547.078.928.585.85 1.131l-.997 6.997c-.071.5-.499.86-.989.86z"/></svg>