<svg height="512pt" viewBox="0 -1 512.002 512" width="512pt" xmlns="http://www.w3.org/2000/svg"><path d="m256 362.035156h-234.289062c-7.808594 0-14.136719 6.332032-14.136719 14.140625v2.019531c0 7.808594 6.328125 14.136719 14.136719 14.136719h468.578124c7.808594 0 14.136719-6.328125 14.136719-14.136719v-2.019531c0-7.808593-6.328125-14.140625-14.136719-14.140625zm0 0" fill="#b3bfc4"/><path d="m490.289062 362.035156h-38.375c7.808594 0 14.136719 6.332032 14.136719 14.140625v2.019531c0 7.808594-6.328125 14.136719-14.136719 14.136719h38.375c7.808594 0 14.136719-6.328125 14.136719-14.136719v-2.019531c0-7.808593-6.328125-14.140625-14.136719-14.140625zm0 0" fill="#9bacb2"/><path d="m256 392.332031h-227.21875l18.085938 99.476563c1.222656 6.722656 7.078124 11.609375 13.910156 11.609375h390.445312c6.832032 0 12.6875-4.886719 13.910156-11.609375l18.085938-99.476563zm0 0" fill="#b3bfc4"/><path d="m256 392.332031h-227.21875l2.570312 14.136719h396.363282c12.597656 0 22.125 11.414062 19.871094 23.8125l-13.300782 73.136719h16.9375c6.832032 0 12.6875-4.886719 13.910156-11.609375l18.085938-99.476563zm0 0" fill="#9bacb2"/><path d="m180.261719 362.035156s0-164.101562 0-230.25c0-36.371094-10.101563-124.210937-75.742188-124.210937s-75.738281 87.839843-75.738281 124.210937v230.25zm0 0" fill="#db8d37"/><path d="m104.519531 7.574219c-2.792969 0-5.480469.171875-8.078125.480469 43.265625 5.125 59.558594 41.359374 65.097656 79.1875-48.574218 19.609374-80.246093 54.347656-80.246093 94.730468 0 16.796875 5.714843 33.519532 16.527343 48.363282 2.367188 3.25 3.671876 7.371093 3.671876 11.605468v120.09375h78.769531s0-164.101562 0-230.25c0-36.367187-10.101563-124.210937-75.742188-124.210937zm0 0" fill="#bd7029"/><path d="m151.984375 140.878906c0-9.484375-21.25-17.167968-47.464844-17.167968-26.210937 0-47.460937 7.683593-47.460937 17.167968 0 9.480469 21.25 17.167969 47.460937 17.167969 26.214844 0 47.464844-7.6875 47.464844-17.167969zm0 0" fill="#f0a65f"/><path d="m104.519531 158.042969c26.214844 0 47.464844-7.683594 47.464844-17.167969 0-9.304688-20.464844-16.871094-46-17.152344-9.320313 10-16.261719 21.066406-20.375 32.898438 5.792969.914062 12.1875 1.421875 18.910156 1.421875zm0 0" fill="#e28540"/><path d="m151.984375 212.578125c0-9.484375-21.25-17.167969-47.464844-17.167969-26.210937 0-47.460937 7.683594-47.460937 17.167969 0 9.480469 21.25 17.167969 47.460937 17.167969 26.214844 0 47.464844-7.6875 47.464844-17.167969zm0 0" fill="#f0a65f"/><path d="m97.265625 229.546875c2.367187.128906 4.789063.199219 7.253906.199219 26.214844 0 47.464844-7.6875 47.464844-17.167969 0-9.484375-21.25-17.167969-47.464844-17.167969-7.796875 0-15.144531.683594-21.636719 1.886719 2.328126 11.222656 7.1875 22.15625 14.382813 32.25zm0 0" fill="#e28540"/><path d="m151.984375 284.277344c0-9.480469-21.25-17.167969-47.464844-17.167969-26.210937 0-47.460937 7.6875-47.460937 17.167969 0 9.480468 21.25 17.167968 47.460937 17.167968 26.214844 0 47.464844-7.6875 47.464844-17.167968zm0 0" fill="#f0a65f"/><path d="m104.519531 301.445312c26.214844 0 47.464844-7.6875 47.464844-17.167968 0-9.480469-21.25-17.167969-47.464844-17.167969-1.015625 0-2.027343.015625-3.027343.039063v34.257812c1 .023438 2.011718.039062 3.027343.039062zm0 0" fill="#e28540"/><path d="m256 362.035156h228.230469v-109.996094c0-8.425781 2.578125-16.683593 7.539062-23.496093 8.140625-11.175781 12.65625-23.507813 12.65625-36.472657 0-50.582031-68.722656-91.589843-153.5-91.589843h-95.9375zm0 0" fill="#e28540"/><path d="m350.925781 100.480469h-32.316406c84.777344 0 153.5 41.007812 153.5 91.589843 0 12.964844-4.515625 25.296876-12.65625 36.472657-4.960937 6.8125-7.539063 15.070312-7.539063 23.496093v109.996094h32.316407v-109.996094c0-8.425781 2.578125-16.683593 7.539062-23.496093 8.140625-11.175781 12.65625-23.507813 12.65625-36.472657 0-50.582031-68.722656-91.589843-153.5-91.589843zm0 0" fill="#db7835"/><path d="m254.988281 100.480469c-84.773437 0-153.496093 41.007812-153.496093 91.589843 0 12.964844 4.515624 25.296876 12.652343 36.472657 4.964844 6.8125 7.542969 15.070312 7.542969 23.496093v109.996094h267.613281v-109.996094c0-8.425781 2.582031-16.683593 7.542969-23.496093 8.140625-11.175781 11.644531-23.507813 11.644531-36.472657 0-50.582031-68.722656-91.589843-153.5-91.589843zm0 0" fill="#f0a65f"/><path d="m151.984375 362.035156v-109.996094c0-15.050781-4.617187-29.34375-13.351563-41.335937-4.542968-6.234375-6.847656-12.503906-6.847656-18.632813 0-28.929687 52.691406-61.292968 123.203125-61.292968 70.515625 0 123.203125 32.359375 123.203125 61.292968 0 6.128907-2.304687 12.398438-6.847656 18.636719-8.734375 11.988281-13.347656 26.28125-13.347656 41.332031v109.996094zm0 0" fill="#fff3d7"/><path d="m378.191406 192.070312c0-28.929687-52.6875-61.292968-123.203125-61.292968-3.929687 0-7.796875.105468-11.609375.300781 64.605469 3.300781 111.589844 33.671875 111.589844 60.992187 0 6.128907-2.304688 12.398438-6.847656 18.636719-8.734375 11.988281-12.339844 26.203125-12.339844 41.253907v110.074218h22.214844s0-109.925781 0-109.996094c0-15.050781 4.617187-29.34375 13.351562-41.332031 4.542969-6.238281 6.84375-12.507812 6.84375-18.636719zm0 0" fill="#f9dbaa"/><path d="m491.804688 354.539062v-52.464843c0-4.179688-3.394532-7.570313-7.574219-7.570313-4.183594 0-7.574219 3.390625-7.574219 7.570313v52.390625h-79.78125v-102.425782c0-6.886718 2.164062-13.644531 6.09375-19.035156 8.6875-11.933594 13.09375-25.703125 13.09375-40.933594 0-27.234374-17.277344-52.546874-48.652344-71.265624-8.128906-4.851563-16.972656-9.109376-26.382812-12.75h9.902344c39.652343 0 76.820312 9.148437 104.660156 25.757812 26.609375 15.878906 41.261718 36.570312 41.261718 58.257812 0 11.035157-3.765624 21.808594-11.203124 32.011719-5.882813 8.078125-8.992188 17.746094-8.992188 27.957031v14.734376c0 4.179687 3.390625 7.574218 7.574219 7.574218 4.183593 0 7.574219-3.394531 7.574219-7.574218v-14.734376c0-6.886718 2.164062-13.644531 6.089843-19.035156 9.359375-12.851562 14.109375-26.625 14.109375-40.933594 0-27.234374-17.28125-52.546874-48.652344-71.265624-30.148437-17.988282-70.074218-27.898438-112.421874-27.898438h-95.941407c-24.246093 0-47.691406 3.253906-68.96875 9.40625-7.730469-65.175781-37.132812-102.3125-81.5-102.3125-31.382812 0-55.417969 18.394531-69.503906 53.199219-12.464844 30.785156-13.808594 65.214843-13.808594 78.589843v84.40625c0 4.183594 3.390625 7.574219 7.574219 7.574219s7.574219-3.390625 7.574219-7.574219v-84.40625c0-9.742187.914062-43.792968 12.699219-72.90625 11.746093-29.019531 30.410156-43.734374 55.464843-43.734374 21.992188 0 38.476563 10.753906 50.394531 32.878906 10.121094 18.789062 14.507813 41.585937 16.398438 59.132812-10.292969 3.828125-19.9375 8.390625-28.746094 13.644532-.523437.3125-1.035156.632812-1.550781.949218-9.742187-3.59375-22.757813-5.617187-36.496094-5.617187-26.507812 0-55.039062 7.742187-55.039062 24.742187 0 15.953125 25.136719 23.753906 50.140625 24.652344-3.226563 7.3125-5.109375 14.917969-5.578125 22.699219-23.210938 1.78125-44.5625 9.617187-44.5625 24.347656 0 16.996094 28.53125 24.742187 55.039062 24.742187 2 0 4.023438-.058593 6.050781-.144531 2.300782 4.523438 3.542969 9.65625 3.542969 14.863281v7.835938c-3.148437-.222656-6.355469-.339844-9.59375-.339844-26.507812 0-55.039062 7.742188-55.039062 24.742188s28.53125 24.742187 55.039062 24.742187c3.238281 0 6.445313-.117187 9.59375-.335937v45.78125h-77.757812v-102.878906c0-4.183594-3.390625-7.574219-7.574219-7.574219s-7.574219 3.390625-7.574219 7.574219v102.902343c-11.738281.273438-21.207031 9.882813-21.207031 21.6875v2.019531c0 11.96875 9.738281 21.710938 21.710938 21.710938h.75l16.953124 93.257812c1.878907 10.328126 10.863282 17.828126 21.363282 17.828126h390.445312c10.5 0 19.484375-7.5 21.363282-17.828126l16.953124-93.257812h.75c11.972657 0 21.710938-9.742188 21.710938-21.710938v-2.019531c0-11.460937-8.933594-20.851562-20.195312-21.636719zm-387.285157-204.070312c-24.265625 0-37.753906-6.582031-39.757812-9.59375 2.003906-3.011719 15.492187-9.59375 39.757812-9.59375 7.265625 0 14.339844.652344 20.574219 1.828125-6.507812 5.421875-12.054688 11.214844-16.582031 17.296875-1.300781.042969-2.632813.0625-3.992188.0625zm-39.757812 62.105469c1.695312-2.574219 11.675781-7.800781 30.167969-9.226563 1.148437 6.40625 3.289062 12.675782 6.398437 18.78125-22.257813-.546875-34.65625-6.679687-36.566406-9.554687zm39.757812 81.296875c-24.265625 0-37.753906-6.582032-39.757812-9.59375 2.003906-3.011719 15.492187-9.59375 39.757812-9.59375 3.257813 0 6.457031.140625 9.59375.390625v18.40625c-3.136719.25-6.335937.390625-9.59375.390625zm15.75-69.785156c-7.433593-10.207032-11.203125-20.976563-11.203125-32.015626 0-21.6875 14.652344-42.378906 41.265625-58.257812 27.835938-16.609375 65.003907-25.757812 104.65625-25.757812 39.65625 0 76.824219 9.148437 104.660157 25.757812 26.613281 15.878906 41.265624 36.570312 41.265624 58.257812 0 12.125-3.332031 22.597657-10.191406 32.011719-5.882812 8.078125-8.996094 17.746094-8.996094 27.957031v102.421876h-16.15625v-102.421876c0-13.4375 4.113282-26.1875 11.898438-36.875 5.507812-7.558593 8.296875-15.328124 8.296875-23.09375 0-17.363281-14.277344-34.925781-39.171875-48.179687-25.054688-13.339844-57.585938-20.6875-91.605469-20.6875s-66.550781 7.347656-91.601562 20.6875c-24.898438 13.253906-39.175781 30.816406-39.175781 48.179687 0 7.765626 2.792968 15.535157 8.300781 23.09375 7.785156 10.6875 11.898437 23.4375 11.898437 36.875v102.425782h-15.148437v-102.425782c0-10.210937-3.109375-19.878906-8.992188-27.953124zm24.488281-17.839844c-3.582031-4.914063-5.398437-9.683594-5.398437-14.175782 0-11.242187 11.9375-24.582031 31.144531-34.808593 22.902344-12.195313 52.90625-18.910157 84.484375-18.910157 31.582031 0 61.585938 6.714844 84.484375 18.910157 19.210938 10.226562 31.144532 23.566406 31.144532 34.808593 0 4.492188-1.8125 9.261719-5.390626 14.175782-9.6875 13.292968-14.804687 29.128906-14.804687 45.792968v102.425782h-190.863281v-102.425782c0-16.664062-5.121094-32.5-14.800782-45.792968zm352.09375 171.949218c0 3.617188-2.945312 6.5625-6.5625 6.5625h-333.085937c-4.183594 0-7.574219 3.390626-7.574219 7.574219 0 4.183594 3.390625 7.574219 7.574219 7.574219h316.941406l-16.464843 90.546875c-.566407 3.121094-3.28125 5.390625-6.457032 5.390625h-390.445312c-3.175782 0-5.890625-2.269531-6.457032-5.390625l-16.464843-90.546875h83.832031c4.183594 0 7.574219-3.390625 7.574219-7.574219 0-4.183593-3.390625-7.574219-7.574219-7.574219h-99.976562c-3.617188 0-6.5625-2.945312-6.5625-6.5625v-2.019531c0-3.621093 2.945312-6.566406 6.5625-6.566406h468.578124c3.617188 0 6.5625 2.945313 6.5625 6.566406zm0 0"/></svg>