<svg id="_x30_1_Parrot" enable-background="new 0 0 64 64" height="512" viewBox="0 0 64 64" width="512" xmlns="http://www.w3.org/2000/svg"><path d="m50.84 19.55c-2.36-.67-5.54-1.35-8.84-3.55-2.15-1.43-3.78-3.63-5.22-5.86l.22-.14s1-4 4-4c4.46 0 8.93 11.15 9.84 13.55z" fill="#fcd770"/><path d="m14 18c6-2 6-16 15-16 3.21 0 5.19 4.13 7.78 8.14 1.44 2.23 3.07 4.43 5.22 5.86 3.3 2.2 6.48 2.88 8.84 3.55 1.38.39 2.48.77 3.16 1.45.31.31.61.67.89 1.07.63.88 1.11 1.93 1.11 2.86 0 2.25-10.75 4.07-24 4.07s-24-1.82-24-4.07c0-1.08.29-2.03.76-2.86 1.23-2.21 3.7-3.55 5.24-4.07z" fill="#ffeaa7"/><path d="m55 22c5.12 1.25 7 2.12 7 4 0 3.87-13.43 7-30 7s-30-3.13-30-7c0-1.69 2.51-2.75 6.76-3.93-.47.83-.76 1.78-.76 2.86 0 2.25 10.75 4.07 24 4.07s24-1.82 24-4.07c0-.93-.48-1.98-1.11-2.86z" fill="#e6e9ed"/><path d="m62 26v6c0 3.87-13.43 7-30 7s-30-3.13-30-7v-6c0 3.87 13.43 7 30 7s30-3.13 30-7z" fill="#b4dd7f"/><path d="m62 32s0 8-5 14c0 0 2 9-2 12 0 0-4 4-23 4s-23-4-23-4c-4-3-2-12-2-12-5-6-5-14-5-14 0 3.87 13.43 7 30 7s30-3.13 30-7z" fill="#ecc19c"/><path d="m45 49s2 1 2 3c0 1.66-1.34 3-3 3s-3-1-4-3h-16c-1 2-2.34 3-4 3s-3-1.34-3-3c0-2 2-3 2-3s-2-1-2-3c0-1.66 1.34-3 3-3s3 1 4 3h16c1-2 2.34-3 4-3s3 1.34 3 3c0 2-2 3-2 3z" fill="#e6e9ed"/><path d="m48 46c0-2.206-1.794-4-4-4-1.328 0-3.164.538-4.596 3h-14.808c-1.433-2.462-3.268-3-4.596-3-2.206 0-4 1.794-4 4 0 1.367.682 2.358 1.342 3-.66.642-1.342 1.633-1.342 3 0 2.206 1.794 4 4 4 1.328 0 3.164-.538 4.596-3h14.808c1.433 2.462 3.268 3 4.596 3 2.206 0 4-1.794 4-4 0-1.367-.682-2.358-1.342-3 .66-.642 1.342-1.633 1.342-3zm-4 8c-1.267 0-2.282-.8-3.105-2.447l-.277-.553h-17.236l-.276.553c-.824 1.647-1.839 2.447-3.106 2.447-1.103 0-2-.897-2-2 0-.896.635-1.525 1.064-1.85l1.488.744.895-1.789-1.994-.997c-.015-.007-1.453-.766-1.453-2.108 0-1.103.897-2 2-2 1.267 0 2.282.8 3.105 2.447l.277.553h17.236l.276-.553c.824-1.647 1.839-2.447 3.106-2.447 1.103 0 2 .897 2 2 0 1.342-1.438 2.101-1.447 2.105l-2 1 .895 1.789 1.488-.744c.43.327 1.064.955 1.064 1.85 0 1.103-.897 2-2 2z"/><path d="m63 26c0-2.831-3.011-3.806-7.615-4.935-.226-.285-.455-.549-.678-.772-.757-.757-1.813-1.181-3.115-1.569-1.309-3.403-5.681-13.724-10.592-13.724-2.299 0-3.629 1.724-4.325 3.098-.068-.109-.137-.219-.204-.328-2.158-3.481-4.196-6.77-7.471-6.77-5.777 0-8.19 5.017-10.319 9.443-1.456 3.027-2.831 5.886-4.998 6.608-1.685.562-4.16 1.939-5.577 4.16-3.944 1.11-7.106 2.297-7.106 4.789v6c0 .334.057 8.113 4.927 14.265-.371 2.002-1.461 9.534 2.437 12.508.639.56 5.523 4.227 23.636 4.227s22.997-3.667 23.636-4.227c3.897-2.974 2.807-10.505 2.437-12.508 4.87-6.152 4.927-13.931 4.927-14.265zm-22-19c2.693 0 6.099 6.071 8.169 11.05-1.972-.556-4.271-1.319-6.615-2.882-1.825-1.217-3.259-3.043-4.562-5.004.143-.485 1.019-3.164 3.008-3.164zm-26.684 11.949c.493-.164.936-.41 1.358-.689 1.141.945 3.982 1.74 10.326 1.74v-2c-5.971 0-8.083-.738-8.772-1.114 1.278-1.48 2.252-3.489 3.256-5.576 2.055-4.273 3.996-8.31 8.516-8.31 2.162 0 3.834 2.699 5.77 5.824 1.761 2.842 3.757 6.062 6.675 8.008 3.036 2.024 5.918 2.806 8.234 3.434 1.665.451 2.979.808 3.613 1.441.981.981 1.673 2.267 1.706 3.158-.71 1.08-8.268 3.135-22.998 3.135-14.736 0-22.294-2.056-23-3.136.046-3.29 3.49-5.306 5.316-5.915zm-7.173 4.636c-.087.429-.143.874-.143 1.345 0 4.928 22.441 5.07 25 5.07s25-.142 25-5.07c0-.479-.101-.966-.261-1.445 3.541.988 4.261 1.657 4.261 2.515 0 2.505-11.033 6-29 6s-29-3.495-29-6c0-.917 2.22-1.803 4.143-2.415zm48.881 22.631c.515 2.33 1.227 8.845-1.624 10.984l-.092.079c-.041.037-4.244 3.721-22.308 3.721s-22.267-3.684-22.293-3.707l-.107-.093c-2.851-2.139-2.139-8.654-1.624-10.984l.106-.479-.314-.377c-2.771-3.326-3.927-7.34-4.413-10.097 4.921 3.12 16.834 4.737 28.645 4.737 11.814 0 23.731-1.618 28.649-4.74-.483 2.754-1.637 6.764-4.417 10.1l-.314.377zm-24.024-8.216c-17.967 0-29-3.495-29-6v-.001-2.969c4.684 3.273 16.898 4.97 29 4.97s24.316-1.697 29-4.97v2.97c0 2.505-11.033 6-29 6z"/><path d="m30 18h4v2h-4z"/><path d="m41 21c0 .944-1.983 1-2 1v2c1.383 0 4-.627 4-3s-2.617-3-4-3l-.003 2c.02 0 2.003.056 2.003 1z"/><path d="m30 24c-6.807 0-11.755-.971-11.804-.98l-.392 1.961c.208.041 5.177 1.019 12.196 1.019z"/><path d="m46 22h2v2h-2z"/><path d="m34 12h-2c0 .855-1.234 1-4 1-2.71 0-4-.149-4-1h-2c0 3 3.468 3 6 3s6 0 6-3z"/><path d="m26 8h2v2h-2z"/><path d="m32 24h2v2h-2z"/></svg>