<svg height="512" viewBox="0 0 512 512" width="512" xmlns="http://www.w3.org/2000/svg"><g id="filled_outline" data-name="filled outline"><path d="m274.968 233.512-5.09-7.843 12.204-17.724h12.13l33.788 32.055-1.898 32z" fill="#ebebeb"/><path d="m231.807 211.038-3.068-12.853 17.654-25.154 14.28-.344 33.539 35.258-19.244 25.567z" fill="#63add9"/><path d="m206.24 191.794-2.961-13.17 17.46-24.722 14.367-.459 25.567 19.244-28.866 38.351z" fill="#69b9e7"/><path d="m328 368a24 24 0 0 1 -24-24 24 24 0 0 1 4.8-14.4l19.2-25.6 19.2 25.6a24 24 0 0 1 4.8 14.4 24 24 0 0 1 -24 24z" fill="#e4e4e2"/><path d="m56 98.735 48.11-63.917 33.228 6.1a48 48 0 0 1 30.844 19.957l34.665 50.256a124.837 124.837 0 0 0 27.689 28.859l9.381 7.062-38.488 51.133-9.381-7.061a124.838 124.838 0 0 0 -35.394-18.624l-57.886-19.4a48 48 0 0 1 -27.712-24.118z" fill="#ebebeb"/><path d="m107.189 81.264h48v48h-48z" fill="#69b9e7" transform="matrix(-.601 .799 -.799 -.601 294.185 63.752)"/><path d="m344 400-8 24 16 24-48 24 16-32-16-16 8-24h-288v88h296 168v-88z" fill="#fdb62f"/><path d="m352 288h16v16h-16z" fill="#bef5fa"/><path d="m352 248h16v24h-16z" fill="#bef5fa"/><g fill="#ec9e15"><path d="m146 488 6.5-8.668a65.829 65.829 0 0 1 32.008-23.066 82.223 82.223 0 0 0 44.469-35.676l10.195-17.043 1.754-3.547h-18.253l-7.415 12.359a66.206 66.206 0 0 1 -35.813 28.727 81.77 81.77 0 0 0 -39.745 28.644l-14.13 18.27z"/><path d="m70 488h19.035a109.175 109.175 0 0 0 7.8-86.785l-.404-1.215h-17.431c.459.9.973 1.9 1.622 3.141l1.047 3.132a93.354 93.354 0 0 1 -8.312 77.262z"/><path d="m488 400h-31.1l-11.88 7.426a115.787 115.787 0 0 0 -52.851 78.929l-.343 1.645h16.357a99.952 99.952 0 0 1 45.325-67l22.351-13.976 12.141-5.819z"/><path d="m360 452-14-31 14-21h-16l-8 24 16 24-48 24z"/></g><path d="m329 305.333-12.2 16.267a23.934 23.934 0 0 0 31.635 34.835 23.755 23.755 0 0 0 -1.235-26.835z" fill="#ebebeb"/><path d="m63.9 132.542a55.629 55.629 0 0 0 32.331 28.139l57.885 19.406a116.606 116.606 0 0 1 33.125 17.429l9.381 7.061a8 8 0 0 0 4.812 1.609 7.916 7.916 0 0 0 1.117-.079 8 8 0 0 0 5.269-3.107l19.18 14.429c.041.031.087.051.128.081a7.839 7.839 0 0 0 .932.589c.016.009.031.02.047.028l.01.006 42.568 22.167 50.607 38.092a8 8 0 0 0 12.8-5.918l1.9-32a8 8 0 0 0 -2.48-6.278l-33.637-31.913-33.4-35.11c-.045-.047-.1-.087-.142-.133-.121-.122-.246-.24-.377-.355-.091-.08-.183-.157-.278-.232-.064-.052-.122-.108-.188-.157l-19.175-14.434a8 8 0 0 0 -1.58-11.2l-9.382-7.061a116.643 116.643 0 0 1 -25.914-27.01l-34.671-50.258a55.635 55.635 0 0 0 -35.986-23.284l-33.227-6.1a8 8 0 0 0 -7.836 3.058l-48.111 63.917a8 8 0 0 0 -.769 8.376zm197.491 52.5 22.36 23.5-11.094 14.738-28.779-14.98zm57.609 71.599-32.827-24.71 9.04-12.011 24.582 23.322zm-88.773-56.806-12.783-9.622 19.244-25.567 12.783 9.622zm-122.699-156.256 28.366 5.208a39.742 39.742 0 0 1 25.7 16.63l34.665 50.257a132.6 132.6 0 0 0 29.462 30.708l2.989 2.25-28.865 38.35-2.991-2.25a132.573 132.573 0 0 0 -37.654-19.815l-57.885-19.406a39.737 39.737 0 0 1 -23.094-20.1l-12.856-25.811z"/><path d="m92.77 116.4 38.349 28.866a8 8 0 0 0 11.2-1.58l28.866-38.351a8 8 0 0 0 -1.581-11.2l-38.35-28.865a8 8 0 0 0 -11.2 1.58l-28.865 38.35a8 8 0 0 0 1.581 11.2zm35.257-33.539 25.567 19.239-19.244 25.57-25.567-19.244z"/><path d="m488 392h-136a8 8 0 0 0 -6.656 3.562l-16 24a8 8 0 0 0 0 8.876l10.972 16.462-18.427 9.214 5.266-10.533a8 8 0 0 0 -1.5-9.235l-12.5-12.5 6.437-19.309a8 8 0 0 0 -7.592-10.537h-288a8 8 0 0 0 -8 8v88a8 8 0 0 0 8 8h464a8 8 0 0 0 8-8v-88a8 8 0 0 0 -8-8zm-348.3 77.731-7.7 10.269h-38.869a109.245 109.245 0 0 0 5.719-72h119.02l-2.617 4.361a66.19 66.19 0 0 1 -35.808 28.724 81.8 81.8 0 0 0 -39.745 28.646zm-107.7-61.731h50.208a93.285 93.285 0 0 1 -6.869 72h-43.339zm120 72 .5-.668a65.861 65.861 0 0 1 32-23.068 82.209 82.209 0 0 0 44.469-35.67l7.561-12.594h64.37l-4.49 13.47a8 8 0 0 0 1.933 8.187l11.923 11.923-13.421 26.842a8 8 0 0 0 1.5 9.235l2.342 2.343zm165.505-5.808 38.073-19.037a8 8 0 0 0 3.078-11.593l-13.041-19.562 10.666-16h87.851a116.006 116.006 0 0 0 -50.7 72h-70.118zm162.495 5.808h-70.086a99.992 99.992 0 0 1 43.592-59.007l20.794-12.993h5.7z"/><path d="m328 296a8 8 0 0 0 -6.4 3.2l-19.2 25.6a32 32 0 1 0 51.2 0l-19.2-25.6a8 8 0 0 0 -6.4-3.2zm16 48a16 16 0 1 1 -28.8-9.6l12.8-17.067 12.8 17.067a16.109 16.109 0 0 1 3.2 9.6z"/><path d="m352 288h16v16h-16z"/><path d="m352 248h16v24h-16z"/></g></svg>